<?xml version="1.0" standalone="no"?>
<!DOCTYPE svg PUBLIC "-//W3C//DTD SVG 20010904//EN"
 "http://www.w3.org/TR/2001/REC-SVG-20010904/DTD/svg10.dtd">
<svg version="1.0" xmlns="http://www.w3.org/2000/svg"
 width="42.000000pt" height="42.000000pt" viewBox="0 0 42.000000 42.000000"
 preserveAspectRatio="xMidYMid meet">

<g transform="translate(0.000000,42.000000) scale(0.100000,-0.100000)"
fill="#000000" stroke="none">
<path d="M245 340 c-3 -5 -1 -10 4 -10 6 0 11 5 11 10 0 6 -2 10 -4 10 -3 0
-8 -4 -11 -10z"/>
<path d="M215 319 c-4 -6 -4 -13 -1 -16 3 -4 6 -1 6 6 0 7 5 9 12 5 7 -4 8 -3
4 4 -9 15 -13 15 -21 1z"/>
<path d="M177 290 c6 -7 9 -18 7 -25 -3 -6 2 -18 11 -25 12 -10 18 -10 30 0 9
7 14 19 11 25 -2 7 1 18 7 25 8 8 5 8 -10 -1 -19 -12 -27 -12 -45 0 -16 9 -19
9 -11 1z"/>
<path d="M160 270 c-14 -56 -4 -95 26 -109 31 -14 71 3 77 33 4 17 3 53 -3 76
0 3 -8 -11 -18 -30 -9 -19 -24 -35 -32 -35 -8 0 -23 16 -32 35 -10 19 -18 33
-18 30z"/>
<path d="M167 81 c-5 -46 1 -55 9 -13 7 36 26 44 24 10 -1 -13 -2 -32 -1 -42
1 -20 1 -20 15 0 10 13 11 23 4 31 -10 12 -3 33 11 33 5 0 11 -14 15 -32 8
-43 15 -32 7 13 -6 32 -9 35 -43 36 -34 0 -36 -2 -41 -36z"/>
</g>
</svg>
